<svg width="20" height="20" viewBox="0 0 20 20" fill="none" xmlns="http://www.w3.org/2000/svg">
<path d="M8.19506 7.82258H12.2898L10.2424 4.40827L8.19506 7.82258ZM10.2424 2.5C10.5811 2.5 10.8987 2.67843 11.0711 2.96875L13.9743 7.80746C14.1527 8.10685 14.1588 8.47883 13.9864 8.78125C13.814 9.08367 13.4934 9.27419 13.1457 9.27419H7.33921C6.99143 9.27419 6.66784 9.08669 6.49849 8.78427C6.32913 8.48185 6.33216 8.10988 6.51058 7.81048L9.41381 2.97177C9.58619 2.67843 9.90373 2.5 10.2424 2.5ZM6.37147 16.0484C6.88479 16.0484 7.37709 15.8445 7.74007 15.4815C8.10304 15.1185 8.30696 14.6262 8.30696 14.1129C8.30696 13.5996 8.10304 13.1073 7.74007 12.7443C7.37709 12.3813 6.88479 12.1774 6.37147 12.1774C5.85815 12.1774 5.36585 12.3813 5.00288 12.7443C4.6399 13.1073 4.43599 13.5996 4.43599 14.1129C4.43599 14.6262 4.6399 15.1185 5.00288 15.4815C5.36585 15.8445 5.85815 16.0484 6.37147 16.0484ZM6.37147 10.7258C6.81627 10.7258 7.25672 10.8134 7.66766 10.9836C8.0786 11.1539 8.45199 11.4033 8.76651 11.7179C9.08103 12.0324 9.33052 12.4058 9.50074 12.8167C9.67096 13.2277 9.75857 13.6681 9.75857 14.1129C9.75857 14.5577 9.67096 14.9981 9.50074 15.4091C9.33052 15.82 9.08103 16.1934 8.76651 16.5079C8.45199 16.8225 8.0786 17.072 7.66766 17.2422C7.25672 17.4124 6.81627 17.5 6.37147 17.5C5.92667 17.5 5.48623 17.4124 5.07529 17.2422C4.66434 17.072 4.29095 16.8225 3.97643 16.5079C3.66191 16.1934 3.41242 15.82 3.2422 15.4091C3.07198 14.9981 2.98438 14.5577 2.98438 14.1129C2.98438 13.6681 3.07198 13.2277 3.2422 12.8167C3.41242 12.4058 3.66191 12.0324 3.97643 11.7179C4.29095 11.4033 4.66434 11.1539 5.07529 10.9836C5.48623 10.8134 5.92667 10.7258 6.37147 10.7258ZM12.6618 15.5645H15.565V12.6613H12.6618V15.5645ZM12.4199 11.2097H15.807C16.4753 11.2097 17.0166 11.751 17.0166 12.4194V15.8065C17.0166 16.4748 16.4753 17.0161 15.807 17.0161H12.4199C11.7515 17.0161 11.2102 16.4748 11.2102 15.8065V12.4194C11.2102 11.751 11.7515 11.2097 12.4199 11.2097Z" fill="#212B36"/>
</svg>
