<svg width="20" height="20" viewBox="0 0 20 20" fill="none" xmlns="http://www.w3.org/2000/svg">
<path d="M15.6875 10.0602C15.6875 10.134 15.6602 10.2023 15.5727 10.2789C15.4688 10.3637 15.2965 10.4375 15.0859 10.4375H12.4063C10.957 10.4375 9.78125 11.6133 9.78125 13.0625C9.78125 13.2484 9.80039 13.4289 9.83867 13.6039C9.92891 14.0332 10.1176 14.4543 10.2324 14.7141C10.2516 14.7578 10.2707 14.7961 10.2844 14.8316C10.4211 15.1461 10.4375 15.2527 10.4375 15.2992C10.4375 15.4441 10.3855 15.559 10.3336 15.6219C10.309 15.652 10.2898 15.6656 10.2789 15.6711C10.2707 15.6766 10.257 15.6793 10.2352 15.682C10.1559 15.6848 10.0793 15.6875 10 15.6875C6.8582 15.6875 4.3125 13.1418 4.3125 10C4.3125 6.8582 6.8582 4.3125 10 4.3125C13.1418 4.3125 15.6875 6.8582 15.6875 10C15.6875 10.0191 15.6875 10.0383 15.6875 10.0602ZM17 10.0738C17 10.0492 17 10.0246 17 10C17 6.13359 13.8664 3 10 3C6.13359 3 3 6.13359 3 10C3 13.8664 6.13359 17 10 17C10.0957 17 10.1941 16.9973 10.2898 16.9945C11.1594 16.959 11.75 16.1715 11.75 15.2992C11.75 14.9027 11.5832 14.5254 11.4191 14.1508C11.3016 13.8828 11.1813 13.6121 11.1238 13.3332C11.1047 13.2457 11.0965 13.1555 11.0965 13.0625C11.0965 12.3379 11.6844 11.75 12.409 11.75H15.0859C16.084 11.75 16.9918 11.0719 17.0027 10.0738H17ZM7.375 10C7.375 9.76794 7.28281 9.54538 7.11872 9.38128C6.95462 9.21719 6.73206 9.125 6.5 9.125C6.26794 9.125 6.04538 9.21719 5.88128 9.38128C5.71719 9.54538 5.625 9.76794 5.625 10C5.625 10.2321 5.71719 10.4546 5.88128 10.6187C6.04538 10.7828 6.26794 10.875 6.5 10.875C6.73206 10.875 6.95462 10.7828 7.11872 10.6187C7.28281 10.4546 7.375 10.2321 7.375 10ZM7.375 8.25C7.60706 8.25 7.82962 8.15781 7.99372 7.99372C8.15781 7.82962 8.25 7.60706 8.25 7.375C8.25 7.14294 8.15781 6.92038 7.99372 6.75628C7.82962 6.59219 7.60706 6.5 7.375 6.5C7.14294 6.5 6.92038 6.59219 6.75628 6.75628C6.59219 6.92038 6.5 7.14294 6.5 7.375C6.5 7.60706 6.59219 7.82962 6.75628 7.99372C6.92038 8.15781 7.14294 8.25 7.375 8.25ZM10.875 6.5C10.875 6.26794 10.7828 6.04538 10.6187 5.88128C10.4546 5.71719 10.2321 5.625 10 5.625C9.76794 5.625 9.54538 5.71719 9.38128 5.88128C9.21719 6.04538 9.125 6.26794 9.125 6.5C9.125 6.73206 9.21719 6.95462 9.38128 7.11872C9.54538 7.28281 9.76794 7.375 10 7.375C10.2321 7.375 10.4546 7.28281 10.6187 7.11872C10.7828 6.95462 10.875 6.73206 10.875 6.5ZM12.625 8.25C12.8571 8.25 13.0796 8.15781 13.2437 7.99372C13.4078 7.82962 13.5 7.60706 13.5 7.375C13.5 7.14294 13.4078 6.92038 13.2437 6.75628C13.0796 6.59219 12.8571 6.5 12.625 6.5C12.3929 6.5 12.1704 6.59219 12.0063 6.75628C11.8422 6.92038 11.75 7.14294 11.75 7.375C11.75 7.60706 11.8422 7.82962 12.0063 7.99372C12.1704 8.15781 12.3929 8.25 12.625 8.25Z" fill="#212B36"/>
</svg>
