<svg width="12" height="12" viewBox="0 0 12 12" fill="none" xmlns="http://www.w3.org/2000/svg">
<path d="M9.6001 7.875H5.1001C4.89385 7.875 4.7251 7.70625 4.7251 7.5V1.5C4.7251 1.29375 4.89385 1.125 5.1001 1.125H8.229C8.32744 1.125 8.42353 1.16484 8.49385 1.23516L9.86494 2.60625C9.93525 2.67656 9.9751 2.77266 9.9751 2.87109V7.5C9.9751 7.70625 9.80635 7.875 9.6001 7.875ZM5.1001 9H9.6001C10.4274 9 11.1001 8.32734 11.1001 7.5V2.87109C11.1001 2.47266 10.9431 2.09062 10.6618 1.80937L9.28838 0.438281C9.00713 0.157031 8.62744 0 8.229 0H5.1001C4.27275 0 3.6001 0.672656 3.6001 1.5V7.5C3.6001 8.32734 4.27275 9 5.1001 9ZM2.1001 3C1.27275 3 0.600098 3.67266 0.600098 4.5V10.5C0.600098 11.3273 1.27275 12 2.1001 12H6.6001C7.42744 12 8.1001 11.3273 8.1001 10.5V10.125H6.9751V10.5C6.9751 10.7063 6.80635 10.875 6.6001 10.875H2.1001C1.89385 10.875 1.7251 10.7063 1.7251 10.5V4.5C1.7251 4.29375 1.89385 4.125 2.1001 4.125H2.4751V3H2.1001Z" fill="#6B6F76"/>
</svg>
