<svg width="16" height="16" viewBox="0 0 16 16" fill="none" xmlns="http://www.w3.org/2000/svg">
<path d="M0.796875 8C0.796875 7.53587 0.981249 7.09075 1.30944 6.76256C1.63763 6.43437 2.08275 6.25 2.54687 6.25C3.011 6.25 3.45612 6.43437 3.78431 6.76256C4.1125 7.09075 4.29687 7.53587 4.29687 8C4.29687 8.46413 4.1125 8.90925 3.78431 9.23744C3.45612 9.56563 3.011 9.75 2.54687 9.75C2.08275 9.75 1.63763 9.56563 1.30944 9.23744C0.981249 8.90925 0.796875 8.46413 0.796875 8ZM6.04687 8C6.04687 7.53587 6.23125 7.09075 6.55944 6.76256C6.88763 6.43437 7.33275 6.25 7.79687 6.25C8.261 6.25 8.70612 6.43437 9.03431 6.76256C9.3625 7.09075 9.54687 7.53587 9.54687 8C9.54687 8.46413 9.3625 8.90925 9.03431 9.23744C8.70612 9.56563 8.261 9.75 7.79687 9.75C7.33275 9.75 6.88763 9.56563 6.55944 9.23744C6.23125 8.90925 6.04687 8.46413 6.04687 8ZM13.0469 6.25C13.511 6.25 13.9561 6.43437 14.2843 6.76256C14.6125 7.09075 14.7969 7.53587 14.7969 8C14.7969 8.46413 14.6125 8.90925 14.2843 9.23744C13.9561 9.56563 13.511 9.75 13.0469 9.75C12.5827 9.75 12.1376 9.56563 11.8094 9.23744C11.4812 8.90925 11.2969 8.46413 11.2969 8C11.2969 7.53587 11.4812 7.09075 11.8094 6.76256C12.1376 6.43437 12.5827 6.25 13.0469 6.25Z" fill="#6B6F76"/>
</svg>
