<svg width="16" height="16" viewBox="0 0 16 16" fill="none" xmlns="http://www.w3.org/2000/svg">
<path d="M14.5 8C14.5 6.27609 13.8152 4.62279 12.5962 3.40381C11.3772 2.18482 9.72391 1.5 8 1.5C6.27609 1.5 4.62279 2.18482 3.40381 3.40381C2.18482 4.62279 1.5 6.27609 1.5 8C1.5 9.72391 2.18482 11.3772 3.40381 12.5962C4.62279 13.8152 6.27609 14.5 8 14.5C9.72391 14.5 11.3772 13.8152 12.5962 12.5962C13.8152 11.3772 14.5 9.72391 14.5 8ZM0 8C0 5.87827 0.842855 3.84344 2.34315 2.34315C3.84344 0.842855 5.87827 0 8 0C10.1217 0 12.1566 0.842855 13.6569 2.34315C15.1571 3.84344 16 5.87827 16 8C16 10.1217 15.1571 12.1566 13.6569 13.6569C12.1566 15.1571 10.1217 16 8 16C5.87827 16 3.84344 15.1571 2.34315 13.6569C0.842855 12.1566 0 10.1217 0 8ZM8 5.5C7.44687 5.5 7 5.94687 7 6.5C7 6.91562 6.66562 7.25 6.25 7.25C5.83437 7.25 5.5 6.91562 5.5 6.5C5.5 5.11875 6.61875 4 8 4C9.38125 4 10.5 5.11875 10.5 6.5C10.5 7.975 9.375 8.6 8.75 8.82812V8.94687C8.75 9.3625 8.41562 9.69687 8 9.69687C7.58437 9.69687 7.25 9.3625 7.25 8.94687V8.69375C7.25 8.05312 7.7125 7.59375 8.19062 7.4375C8.39062 7.37187 8.60312 7.26562 8.75937 7.11562C8.89375 6.98437 9 6.80312 9 6.50312C9 5.95 8.55312 5.50312 8 5.50312V5.5ZM7 11.5C7 11.2348 7.10536 10.9804 7.29289 10.7929C7.48043 10.6054 7.73478 10.5 8 10.5C8.26522 10.5 8.51957 10.6054 8.70711 10.7929C8.89464 10.9804 9 11.2348 9 11.5C9 11.7652 8.89464 12.0196 8.70711 12.2071C8.51957 12.3946 8.26522 12.5 8 12.5C7.73478 12.5 7.48043 12.3946 7.29289 12.2071C7.10536 12.0196 7 11.7652 7 11.5Z" fill="#212B36"/>
</svg>
