<svg width="20" height="20" viewBox="0 0 20 20" fill="none" xmlns="http://www.w3.org/2000/svg">
<path d="M9.55876 3.16816C9.80759 2.94395 10.1849 2.94395 10.4338 3.16816L16.7775 8.85566C17.0482 9.09629 17.0701 9.51191 16.8267 9.78262C16.5834 10.0533 16.1705 10.0752 15.8998 9.83184L15.681 9.63496V15.2486C15.681 16.2139 14.8963 16.9986 13.931 16.9986H6.05603C5.09079 16.9986 4.30603 16.2139 4.30603 15.2486V9.63496L4.08728 9.83184C3.81657 10.0725 3.40368 10.0506 3.16032 9.78262C2.91696 9.51465 2.94157 9.09902 3.20954 8.85566L9.55876 3.16816ZM9.99626 4.53809L5.62126 8.46191V15.2514C5.62126 15.492 5.81814 15.6889 6.05876 15.6889H7.37126V12.8451C7.37126 11.7568 8.25173 10.8764 9.34001 10.8764H10.6525C11.7408 10.8764 12.6213 11.7568 12.6213 12.8451V15.6889H13.9338C14.1744 15.6889 14.3713 15.492 14.3713 15.2514V8.46191L9.99626 4.54082V4.53809ZM8.68376 15.6889H11.3088V12.8451C11.3088 12.4814 11.0162 12.1889 10.6525 12.1889H9.34001C8.97634 12.1889 8.68376 12.4814 8.68376 12.8451V15.6889Z" fill="#212B36"/>
</svg>
