<svg width="14" height="14" viewBox="0 0 14 14" fill="none" xmlns="http://www.w3.org/2000/svg">
<path d="M10.3906 2.87297C9.87049 2.87297 9.36493 3.04067 8.94931 3.34449C8.67222 3.06012 8.35625 2.80734 8.01597 2.59831C8.67222 2.0247 9.51563 1.7063 10.3906 1.7063C12.3837 1.7063 14 3.32262 14 5.31567C14 6.27331 13.6208 7.18963 12.9427 7.86776L11.0201 9.79033C10.3444 10.466 9.42569 10.8476 8.46806 10.8476C6.475 10.8476 4.85868 9.2313 4.85868 7.23824C4.85868 6.80317 4.93646 6.3754 5.08715 5.97678C5.19896 5.6754 5.53681 5.52227 5.83819 5.63408C6.13958 5.74588 6.29514 6.0813 6.18333 6.38269C6.08125 6.65248 6.02778 6.94172 6.02778 7.23824C6.02778 8.5872 7.12153 9.68095 8.47049 9.68095C9.11701 9.68095 9.73924 9.42331 10.1962 8.96637L12.1188 7.0438C12.5757 6.58199 12.8333 5.9622 12.8333 5.31567C12.8333 3.96672 11.7396 2.87297 10.3906 2.87297ZM5.52951 4.23408C4.88299 4.23408 4.26076 4.49172 3.80382 4.94866L1.88125 6.87123C1.42431 7.32817 1.16667 7.9504 1.16667 8.59692C1.16667 9.94588 2.26042 11.0396 3.60938 11.0396C4.12951 11.0396 4.63507 10.8719 5.05069 10.5681C5.32778 10.8549 5.64375 11.1053 5.98403 11.3143C5.32778 11.8879 4.48438 12.2063 3.60938 12.2063C1.61632 12.2063 0 10.59 0 8.59692C0 7.63929 0.379167 6.72297 1.05729 6.04484L2.97986 4.12227C3.65556 3.44658 4.57431 3.06498 5.53194 3.06498C7.525 3.06498 9.14132 4.6813 9.14132 6.67435C9.14132 7.10942 9.06354 7.5372 8.91285 7.93581C8.80104 8.2372 8.46319 8.39033 8.16181 8.27852C7.86042 8.16672 7.70486 7.8313 7.81667 7.52991C7.91875 7.26012 7.97222 6.97088 7.97222 6.67679C7.97222 5.32783 6.87847 4.23408 5.52951 4.23408Z" fill="#6B6F76"/>
</svg>
