<svg width="20" height="20" viewBox="0 0 20 20" fill="none" xmlns="http://www.w3.org/2000/svg">
<path d="M8.56992 16.1498L7.53633 16.8799C7.33672 17.0221 7.07422 17.0385 6.85547 16.9264C6.63672 16.8143 6.5 16.5901 6.5 16.344V14.3752H5.625C4.17578 14.3752 3 13.1994 3 11.7502V5.62505C3 4.1758 4.17578 3 5.625 3H14.375C15.8242 3 17 4.1758 17 5.62505V11.7502C17 13.1994 15.8242 14.3752 14.375 14.3752H11.0828L8.56992 16.1498ZM10.3281 13.3033C10.5496 13.1474 10.8148 13.0627 11.0855 13.0627H14.375C15.0996 13.0627 15.6875 12.4748 15.6875 11.7502V5.62505C15.6875 4.90042 15.0996 4.31252 14.375 4.31252H5.625C4.90039 4.31252 4.3125 4.90042 4.3125 5.62505V11.7502C4.3125 12.4748 4.90039 13.0627 5.625 13.0627H7.15625C7.44063 13.0627 7.68398 13.2432 7.77422 13.4975C7.79883 13.5658 7.8125 13.6396 7.8125 13.7189V15.078C8.70664 14.4463 9.54336 13.8557 10.3254 13.3033H10.3281Z" fill="#212B36"/>
</svg>
