<svg width="16" height="16" viewBox="0 0 16 16" fill="none" xmlns="http://www.w3.org/2000/svg">
<g clip-path="url(#clip0_1316_30344)">
<path d="M14.2822 1.83812C14.5431 1.57728 14.9666 1.57726 15.2275 1.83812C15.4883 2.09898 15.4883 2.52257 15.2275 2.78343L8.11579 9.89437C7.85492 10.1551 7.43207 10.1551 7.17126 9.89437L5.03766 7.76077C4.77707 7.49994 4.77704 7.07705 5.03766 6.81624C5.29853 6.55537 5.7221 6.55537 5.98298 6.81624L7.64313 8.47718L14.2822 1.83812Z" fill="#6B6F76"/>
<path d="M0.575684 12.9782V3.02197C0.575776 2.46774 0.796273 1.93654 1.18818 1.54463C1.58009 1.15272 2.11129 0.932221 2.66553 0.932129H10.4882C10.8571 0.932168 11.1562 1.2312 11.1562 1.6001C11.1562 1.969 10.8571 2.26803 10.4882 2.26807H2.66553C2.46562 2.26816 2.27408 2.3478 2.13271 2.48916C1.99135 2.63052 1.91171 2.82207 1.91162 3.02197V12.9782C1.91171 13.1781 1.99135 13.3697 2.13271 13.511C2.27408 13.6524 2.46562 13.732 2.66553 13.7321H12.6218C12.8217 13.732 13.0132 13.6524 13.1546 13.511C13.296 13.3697 13.3756 13.1781 13.3757 12.9782V8.0001C13.3757 7.63118 13.6747 7.33214 14.0437 7.33213C14.4126 7.33213 14.7116 7.63118 14.7116 8.0001V12.9782C14.7115 13.5325 14.491 14.0637 14.0991 14.4556C13.7072 14.8475 13.176 15.068 12.6218 15.0681H2.66553C2.11129 15.068 1.58009 14.8475 1.18818 14.4556C0.796274 14.0637 0.575771 13.5325 0.575684 12.9782Z" fill="#6B6F76"/>
</g>
<defs>
<clipPath id="clip0_1316_30344">
<rect width="16" height="16" fill="white"/>
</clipPath>
</defs>
</svg>
