<svg width="14" height="14" viewBox="0 0 14 14" fill="none" xmlns="http://www.w3.org/2000/svg">
<path d="M7.48438 1.53125C7.48438 1.16758 7.1918 0.875 6.82813 0.875C6.46445 0.875 6.17188 1.16758 6.17188 1.53125V6.34375H1.35938C0.995703 6.34375 0.703125 6.63633 0.703125 7C0.703125 7.36367 0.995703 7.65625 1.35938 7.65625H6.17188V12.4688C6.17188 12.8324 6.46445 13.125 6.82813 13.125C7.1918 13.125 7.48438 12.8324 7.48438 12.4688V7.65625H12.2969C12.6605 7.65625 12.9531 7.36367 12.9531 7C12.9531 6.63633 12.6605 6.34375 12.2969 6.34375H7.48438V1.53125Z" fill="#6B6F76"/>
</svg>
