<svg width="16" height="16" viewBox="0 0 16 16" fill="none" xmlns="http://www.w3.org/2000/svg">
<path d="M8 5C7.20435 5 6.44129 5.31607 5.87868 5.87868C5.31607 6.44129 5 7.20435 5 8C5 8.79565 5.31607 9.55871 5.87868 10.1213C6.44129 10.6839 7.20435 11 8 11C8.79565 11 9.55871 10.6839 10.1213 10.1213C10.6839 9.55871 11 8.79565 11 8C11 7.20435 10.6839 6.44129 10.1213 5.87868C9.55871 5.31607 8.79565 5 8 5ZM9.5 8C9.5 8.39782 9.34196 8.77936 9.06066 9.06066C8.77936 9.34196 8.39782 9.5 8 9.5C7.60217 9.5 7.22064 9.34196 6.93934 9.06066C6.65803 8.77936 6.5 8.39782 6.5 8C6.5 7.60217 6.65803 7.22064 6.93934 6.93934C7.22064 6.65803 7.60217 6.5 8 6.5C8.39782 6.5 8.77936 6.65803 9.06066 6.93934C9.34196 7.22064 9.5 7.60217 9.5 8ZM7.34062 0C6.64687 0 6.04375 0.475 5.88125 1.14687L5.62187 2.21562L5.5875 2.22812L4.65 1.65312C4.05937 1.29062 3.29687 1.38125 2.80625 1.87187L1.87812 2.80937C1.3875 3.3 1.29687 4.0625 1.65937 4.65312L2.23437 5.59062L2.22187 5.625L1.15312 5.88437C0.475 6.04375 0 6.64687 0 7.34062V8.65937C0 9.35312 0.475 9.95625 1.14687 10.1187L2.21562 10.3781L2.22812 10.4125L1.65312 11.35C1.29062 11.9406 1.38125 12.7031 1.87187 13.1937L2.80312 14.125C3.29375 14.6156 4.05625 14.7062 4.64687 14.3437L5.58437 13.7687L5.61875 13.7812L5.87812 14.85C6.04062 15.525 6.64375 15.9969 7.3375 15.9969H8.65625C9.35 15.9969 9.95312 15.5219 10.1156 14.85L10.375 13.7812L10.4094 13.7687L11.3469 14.3437C11.9375 14.7062 12.7 14.6156 13.1906 14.125L14.1219 13.1937C14.6125 12.7031 14.7031 11.9406 14.3406 11.35L13.7656 10.4125L13.7781 10.3781L14.8469 10.1187C15.5219 9.95625 15.9937 9.35312 15.9937 8.65937V7.34062C15.9937 6.64687 15.5187 6.04375 14.8469 5.88125L13.7781 5.62187L13.7656 5.5875L14.3406 4.65C14.7031 4.05937 14.6125 3.29687 14.1219 2.80625L13.1906 1.87812C12.7 1.3875 11.9375 1.29687 11.3469 1.65937L10.4094 2.23437L10.375 2.22187L10.1156 1.15312C9.95625 0.475 9.35312 0 8.65937 0H7.34062ZM7.34062 1.5H8.65937L9.0125 2.95625C9.07187 3.20625 9.25937 3.40937 9.50312 3.49062C9.71562 3.5625 9.925 3.64687 10.125 3.74687C10.3562 3.8625 10.6312 3.85 10.8531 3.71562L12.1312 2.93437L13.0625 3.86562L12.2812 5.14375C12.1469 5.36562 12.1344 5.64062 12.25 5.87187C12.35 6.07187 12.4375 6.27812 12.5062 6.49375C12.5875 6.74062 12.7906 6.925 13.0406 6.98437L14.4969 7.3375V8.65625L13.0406 9.00937C12.7906 9.06875 12.5875 9.25625 12.5062 9.5C12.4344 9.7125 12.35 9.92187 12.25 10.1219C12.1344 10.3531 12.1469 10.6281 12.2812 10.85L13.0625 12.1281L12.1312 13.0594L10.8531 12.2781C10.6312 12.1437 10.3562 12.1312 10.125 12.2469C9.925 12.3469 9.71875 12.4344 9.50312 12.5031C9.25937 12.5844 9.07187 12.7875 9.0125 13.0375L8.65937 14.4937H7.34062L6.9875 13.0375C6.92812 12.7875 6.74062 12.5844 6.49687 12.5031C6.28437 12.4312 6.075 12.3469 5.875 12.2469C5.64375 12.1312 5.36875 12.1437 5.14687 12.2781L3.86875 13.0594L2.9375 12.1281L3.71875 10.85C3.85312 10.6281 3.86562 10.3531 3.75 10.1219C3.65 9.92187 3.5625 9.71562 3.49375 9.5C3.4125 9.25625 3.20937 9.06875 2.95937 9.00937L1.50312 8.65625V7.3375L2.95937 6.98437C3.20937 6.925 3.4125 6.7375 3.49375 6.49375C3.56562 6.28125 3.65 6.07187 3.75 5.87187C3.86562 5.64062 3.85312 5.36562 3.71875 5.14375L2.9375 3.86562L3.86875 2.93437L5.14687 3.71562C5.36875 3.85 5.64375 3.8625 5.875 3.74687C6.075 3.64687 6.28125 3.55937 6.49687 3.49062C6.74375 3.40937 6.92812 3.20625 6.9875 2.95625L7.34062 1.5Z" fill="#212B36"/>
</svg>
