<svg width="100%" height="100%" viewBox="0 0 27.3918 27.1875" fill="none" xmlns="http://www.w3.org/2000/svg">
  <path d="M17.8178 27.1875H25.1302C26.3786 27.1875 27.3906 26.1755 27.3906 24.9271V17.6147C27.3906 16.3663 26.3786 15.3543 25.1302 15.3543L17.8178 15.3543C16.5694 15.3543 15.5574 16.3663 15.5574 17.6147L15.5574 24.9271C15.5574 26.1755 16.5694 27.1875 17.8178 27.1875Z" fill="#101010"/>
  <path d="M21.4763 0L21.474 0C18.207 0 15.5585 2.64846 15.5585 5.91549V5.91775C15.5585 9.18479 18.207 11.8332 21.474 11.8332H21.4763C24.7433 11.8332 27.3917 9.18479 27.3917 5.91775V5.91549C27.3917 2.64846 24.7433 0 21.4763 0Z" fill="#101010"/>
  <path d="M5.91788 8.43871e-05H5.91562C2.64858 8.43871e-05 0.000125885 2.64854 0.000125885 5.91558L0.000125885 5.91784C0.000125885 9.18487 2.64858 11.8333 5.91562 11.8333H5.91788C9.18491 11.8333 11.8334 9.18487 11.8334 5.91784V5.91558C11.8334 2.64854 9.18491 8.43871e-05 5.91788 8.43871e-05Z" fill="#101010"/>
  <path d="M5.91782 15.3518H5.91556C2.64853 15.3518 7.26373e-05 18.0003 7.26373e-05 21.2673V21.2696C7.26373e-05 24.5366 2.64853 27.1851 5.91556 27.1851H5.91782C9.18486 27.1851 11.8333 24.5366 11.8333 21.2696V21.2673C11.8333 18.0003 9.18486 15.3518 5.91782 15.3518Z" fill="#101010"/>
</svg>
