<svg width="14" height="14" viewBox="0 0 14 14" fill="none" xmlns="http://www.w3.org/2000/svg">
<path d="M12.6875 7C12.6875 5.49158 12.0883 4.04494 11.0217 2.97833C9.95506 1.91172 8.50842 1.3125 7 1.3125C5.49158 1.3125 4.04494 1.91172 2.97833 2.97833C1.91172 4.04494 1.3125 5.49158 1.3125 7C1.3125 8.50842 1.91172 9.95506 2.97833 11.0217C4.04494 12.0883 5.49158 12.6875 7 12.6875C8.50842 12.6875 9.95506 12.0883 11.0217 11.0217C12.0883 9.95506 12.6875 8.50842 12.6875 7ZM0 7C0 5.14349 0.737498 3.36301 2.05025 2.05025C3.36301 0.737498 5.14349 0 7 0C8.85652 0 10.637 0.737498 11.9497 2.05025C13.2625 3.36301 14 5.14349 14 7C14 8.85652 13.2625 10.637 11.9497 11.9497C10.637 13.2625 8.85652 14 7 14C5.14349 14 3.36301 13.2625 2.05025 11.9497C0.737498 10.637 0 8.85652 0 7Z" fill="#90959D"/>
</svg>
