<svg width="28" height="28" viewBox="0 0 28 28" fill="none" xmlns="http://www.w3.org/2000/svg">
<g clip-path="url(#clip0_9477_32159)">
<path d="M14 7.5C14.8281 7.5 15.5 8.17187 15.5 9V13C15.5 13.8281 14.8281 14.5 14 14.5C13.1719 14.5 12.5 13.8281 12.5 13V9C12.5 8.17187 13.1719 7.5 14 7.5ZM11 9V13C11 14.6562 12.3437 16 14 16C15.6562 16 17 14.6562 17 13V9C17 7.34375 15.6562 6 14 6C12.3437 6 11 7.34375 11 9ZM9.5 11.75C9.5 11.3344 9.16562 11 8.75 11C8.33437 11 8 11.3344 8 11.75V13C8 16.0594 10.2906 18.5844 13.25 18.9531V20.5H11.75C11.3344 20.5 11 20.8344 11 21.25C11 21.6656 11.3344 22 11.75 22H16.25C16.6656 22 17 21.6656 17 21.25C17 20.8344 16.6656 20.5 16.25 20.5H14.75V18.9531C17.7094 18.5844 20 16.0594 20 13V11.75C20 11.3344 19.6656 11 19.25 11C18.8344 11 18.5 11.3344 18.5 11.75V13C18.5 15.4844 16.4844 17.5 14 17.5C11.5156 17.5 9.5 15.4844 9.5 13V11.75Z" fill="#6B6F76"/>
</g>
<defs>
<clipPath id="clip0_9477_32159">
<rect width="16" height="16" fill="white" transform="translate(6 6)"/>
</clipPath>
</defs>
</svg>
